<svg version="1.1" xmlns="http://www.w3.org/2000/svg" xmlns:xlink="http://www.w3.org/1999/xlink" width="10.70585" height="19.98588" viewBox="0,0,10.70585,19.98588"><g transform="translate(-234.29043,-160.32238)"><g data-paper-data="{&quot;isPaintingLayer&quot;:true}" fill="#ffffff" fill-rule="nonzero" stroke="none" stroke-width="0" stroke-linecap="butt" stroke-linejoin="miter" stroke-miterlimit="10" stroke-dasharray="" stroke-dashoffset="0" font-family="none" font-weight="none" font-size="none" text-anchor="none" style="mix-blend-mode: normal"><path d="M234.70824,170.3961c0,0 -0.00117,0.03947 4.56154,-3.94589c0.51423,-0.44916 1.13589,-1.57155 1.43015,-2.09175c0.4628,-0.81812 1.03002,-0.99631 0.43476,-1.1428c-0.59525,-0.14648 -6.79161,-0.42153 -6.79161,-0.42153l0.04954,-1.66211c0,0 3.75786,-0.7698 6.82201,-0.80919c3.06415,-0.03939 3.78165,2.50565 3.78165,2.50565c0,0 -0.45486,1.06756 -2.71634,3.58202c-1.2549,1.39528 -3.85888,4.04436 -3.85888,4.04436z" data-paper-data="{&quot;origPos&quot;:null,&quot;origRot&quot;:0}"/><path d="M234.29043,178.81405c0,0 -0.01489,0.0431 5.67088,-2.59774c0.6408,-0.29763 2.01894,-2.46022 1.51006,-2.85101c-0.50888,-0.39079 -4.86785,-3.07976 -4.86785,-3.07976l0.62747,-1.81489c0,0 3.80475,0.59732 6.70155,1.7335c0.5218,3.13617 1.0064,4.34841 -1.37514,7.12721c-1.66833,1.05642 -4.79417,2.9769 -4.79417,2.9769z" data-paper-data="{&quot;origPos&quot;:null,&quot;origRot&quot;:0}"/></g></g></svg>