<svg version="1.1" xmlns="http://www.w3.org/2000/svg" xmlns:xlink="http://www.w3.org/1999/xlink" width="12.2519" height="18.74746"><g transform="translate(-234.17639,-161.08829)"><g data-paper-data="{&quot;isPaintingLayer&quot;:true}" fill="#ffffff" fill-rule="nonzero" stroke="none" stroke-width="0" stroke-linecap="butt" stroke-linejoin="miter" stroke-miterlimit="10" stroke-dasharray="" stroke-dashoffset="0" font-family="none" font-weight="none" font-size="none" text-anchor="none" style="mix-blend-mode: normal"><path d="M236.37859,168.68393c0,0 4.7657,-1.79386 6.34042,-0.75366c2.83784,1.87458 3.59463,4.89444 3.53985,6.53536c-0.05444,1.63082 -1.59367,3.39488 -3.17811,3.91072c-3.05851,0.99574 -6.97799,1.4594 -6.97799,1.4594l-0.71771,-2.98784c0,0 4.61343,0.34773 6.89775,-1.67376c2.28432,-2.02149 0.47245,-3.26061 -0.33654,-4.13251c-0.41434,-0.44658 -7.69323,-1.03935 -7.69323,-1.03935z" data-paper-data="{&quot;origPos&quot;:null,&quot;origRot&quot;:0,&quot;index&quot;:null}"/><path d="M246.42829,161.08829v2.58787h-12.09818v-2.58787z" data-paper-data="{&quot;origPos&quot;:null,&quot;origRot&quot;:0,&quot;index&quot;:null}"/><path d="M234.17639,169.88909v-8.05927h3.67399v8.05927z" data-paper-data="{&quot;origPos&quot;:null}"/></g></g></svg>