<svg version="1.1" xmlns="http://www.w3.org/2000/svg" xmlns:xlink="http://www.w3.org/1999/xlink" width="11.43794" height="18.99648" viewBox="0,0,11.43794,18.99648"><g transform="translate(-234.7333,-161.03781)"><g data-paper-data="{&quot;isPaintingLayer&quot;:true}" fill="#ffffff" fill-rule="nonzero" stroke="none" stroke-width="0" stroke-linecap="butt" stroke-linejoin="miter" stroke-miterlimit="10" stroke-dasharray="" stroke-dashoffset="0" font-family="none" font-weight="none" font-size="none" text-anchor="none" style="mix-blend-mode: normal"><path d="M246.17124,174.36167c0,3.1329 -2.52773,5.67262 -5.64584,5.67262c-3.1181,0 -5.64583,-2.53972 -5.64583,-5.67262c0,-3.1329 2.52773,-5.67262 5.64583,-5.67262c3.1181,0 5.64584,2.53972 5.64584,5.67262zM240.52539,177.81251c1.71116,0 3.51143,-2.37055 3.51143,-3.54539c0,-1.17484 -1.80027,-3.11994 -3.51143,-3.11994c-1.71116,0 -3.51143,1.9451 -3.51143,3.11994c0,1.17484 1.80027,3.54539 3.51143,3.54539z" data-paper-data="{&quot;origPos&quot;:null}"/><path d="M235.18734,174.70186c0,0 -1.22113,-8.30244 0.34182,-9.67385c1.2547,-1.10093 1.50523,-2.09921 3.09053,-2.6218c11.4079,-3.76057 6.12098,1.42231 6.12098,1.42231c0,0 -1.66062,-0.44541 -4.90925,1.22253c-1.75472,0.90093 -1.81203,1.4217 -2.13462,3.29797c-0.59723,1.27147 -0.75484,6.41483 -0.75484,6.41483z" data-paper-data="{&quot;origPos&quot;:null,&quot;origRot&quot;:0}"/></g></g></svg>