<svg version="1.1" xmlns="http://www.w3.org/2000/svg" xmlns:xlink="http://www.w3.org/1999/xlink" width="10.79167" height="19.55403"><g transform="translate(-234.50457,-160.73026)"><g data-paper-data="{&quot;isPaintingLayer&quot;:true}" fill="#ffffff" fill-rule="nonzero" stroke="none" stroke-width="0" stroke-linecap="butt" stroke-linejoin="miter" stroke-miterlimit="10" stroke-dasharray="" stroke-dashoffset="0" font-family="none" font-weight="none" font-size="none" text-anchor="none" style="mix-blend-mode: normal"><path d="M245.29624,174.59745c0,3.14075 -2.4158,5.68684 -5.39584,5.68684c-2.98003,0 -5.39583,-2.54609 -5.39583,-5.68684c0,-3.14075 2.4158,-5.68684 5.39583,-5.68684c2.98003,0 5.39584,2.54609 5.39584,5.68684zM239.90039,178.05694c1.63539,0 3.35594,-2.37649 3.35594,-3.55428c0,-1.17778 -1.72056,-3.12777 -3.35594,-3.12777c-1.63539,0 -3.35594,1.94997 -3.35594,3.12777c0,1.17778 1.72056,3.55428 3.35594,3.55428z" data-paper-data="{&quot;origPos&quot;:null}"/><path d="M244.38104,165.81425c0,2.80781 -2.1597,5.08399 -4.82384,5.08399c-2.66413,0 -4.82383,-2.27618 -4.82383,-5.08399c0,-2.80781 2.1597,-5.08399 4.82383,-5.08399c2.66413,0 4.82384,2.27618 4.82384,5.08399zM239.55719,168.90702c1.46202,0 3.0002,-2.12457 3.0002,-3.1775c0,-1.05293 -1.53817,-2.79619 -3.0002,-2.79619c-1.46202,0 -3.00019,1.74327 -3.00019,2.79619c0,1.05293 1.53817,3.1775 3.00019,3.1775z" data-paper-data="{&quot;origPos&quot;:null}"/></g></g></svg>