<svg version="1.1" xmlns="http://www.w3.org/2000/svg" xmlns:xlink="http://www.w3.org/1999/xlink" width="11.29167" height="19.08242"><g transform="translate(-234.7333,-161.03781)"><g data-paper-data="{&quot;isPaintingLayer&quot;:true}" fill="#ffffff" fill-rule="nonzero" stroke="none" stroke-width="0" stroke-linecap="butt" stroke-linejoin="miter" stroke-miterlimit="10" stroke-dasharray="" stroke-dashoffset="0" font-family="none" font-weight="none" font-size="none" text-anchor="none" style="mix-blend-mode: normal"><path d="M234.73331,166.71043c0,-3.1329 2.52773,-5.67262 5.64584,-5.67262c3.1181,0 5.64583,2.53972 5.64583,5.67262c0,3.1329 -2.52773,5.67262 -5.64583,5.67262c-3.1181,0 -5.64584,-2.53972 -5.64584,-5.67262zM240.37916,163.25959c-1.71116,0 -3.51143,2.37055 -3.51143,3.54539c0,1.17484 1.80027,3.11994 3.51143,3.11994c1.71116,0 3.51143,-1.9451 3.51143,-3.11994c0,-1.17484 -1.80027,-3.54539 -3.51143,-3.54539z" data-paper-data="{&quot;origPos&quot;:null,&quot;index&quot;:null}"/><path d="M245.73012,167.19936c-0.70997,8.22681 1.65593,11.63788 -4.31543,12.3339c-9.52191,2.24244 -4.6955,-2.66292 -4.6955,-2.66292c0,0 1.27846,0.67969 4.05473,-0.56392c1.49958,-0.67173 1.60182,-1.1916 2.06293,-3.04862c0.61497,-1.20637 1.29841,-6.39687 1.29841,-6.39687c0,0 1.76801,-0.43129 1.59486,0.33844z" data-paper-data="{&quot;origPos&quot;:null,&quot;origRot&quot;:0,&quot;index&quot;:null}"/></g></g></svg>