<svg version="1.1" xmlns="http://www.w3.org/2000/svg" xmlns:xlink="http://www.w3.org/1999/xlink" width="10.44414" height="19.22892" viewBox="0,0,10.44414,19.22892"><g transform="translate(-235.26484,-160.00501)"><g data-paper-data="{&quot;isPaintingLayer&quot;:true}" fill="#ffffff" fill-rule="nonzero" stroke="none" stroke-width="none" stroke-linecap="butt" stroke-linejoin="miter" stroke-miterlimit="10" stroke-dasharray="" stroke-dashoffset="0" font-family="none" font-weight="none" font-size="none" text-anchor="none" style="mix-blend-mode: normal"><path d="M238.01361,167.18727c-0.06889,0.51529 1.83524,0.72246 1.85168,0.72232c2.08682,-0.01655 5.71002,0.03666 5.84055,3.66481c0.16732,4.65083 -6.39844,8.99636 -9.52823,5.14243c-0.82915,-1.02099 -1.63618,-4.27681 0.19554,-4.3457c2.07996,-0.07822 0.77766,1.6085 1.51929,2.18546c1.02708,0.79903 4.53035,-0.06665 4.92226,-1.3126c1.54311,-4.90585 -6.7679,0.26216 -7.33059,-6.16676c-0.32192,-3.67803 2.2433,-5.36534 4.85064,-4.81722c0.70552,0.14832 3.08934,0.87161 3.37942,2.01751c0.21481,0.26044 0.36135,0.60602 0.39486,0.98896c0.07363,0.84129 -0.42611,1.54434 -1.11622,1.57029c-0.39611,0.0149 -0.76884,-0.19652 -1.02845,-0.53845c-1.71636,-0.56962 -3.42174,-3.06797 -3.95075,0.88894z" data-paper-data="{&quot;origPos&quot;:null,&quot;origRot&quot;:0}" stroke-width="0.5"/><path d="M239.10253,178.22121c-0.86251,-2.36369 -1.08851,-16.13889 0,-17.51035c1.23776,-1.55952 1.80567,-0.05651 1.84748,0c0.53807,0.7273 0.86568,16.60865 -0.1478,17.51035c0,0 -0.86821,2.27863 -1.69968,0z" data-paper-data="{&quot;origPos&quot;:null}" stroke-width="0"/></g></g></svg>