<svg version="1.1" xmlns="http://www.w3.org/2000/svg" xmlns:xlink="http://www.w3.org/1999/xlink" width="119.3773" height="36.62722" viewBox="0,0,119.3773,36.62722"><g transform="translate(-151.2761,-157.26138)"><g data-paper-data="{&quot;isPaintingLayer&quot;:true}" fill-rule="nonzero" stroke="none" stroke-width="0" stroke-linecap="butt" stroke-linejoin="miter" stroke-miterlimit="10" stroke-dasharray="" stroke-dashoffset="0" style="mix-blend-mode: normal"><path d="" data-paper-data="{&quot;origPos&quot;:null,&quot;origRot&quot;:0,&quot;index&quot;:null}" fill="#000000"/><path d="" data-paper-data="{&quot;origPos&quot;:null}" fill="#000000"/><path d="" data-paper-data="{&quot;origPos&quot;:null}" fill="#000000"/><path d="" data-paper-data="{&quot;origPos&quot;:null}" fill="#000000"/><path d="" data-paper-data="{&quot;origPos&quot;:null,&quot;origRot&quot;:0}" fill="#000000"/><path d="" data-paper-data="{&quot;origPos&quot;:null,&quot;origRot&quot;:0}" fill="#000000"/><path d="" data-paper-data="{&quot;origPos&quot;:null,&quot;origRot&quot;:0,&quot;index&quot;:null}" fill="#000000"/><path d="" data-paper-data="{&quot;origPos&quot;:null,&quot;origRot&quot;:0,&quot;index&quot;:null}" fill="#000000"/><path d="" data-paper-data="{&quot;origPos&quot;:null,&quot;origRot&quot;:0}" fill="#000000"/><path d="" data-paper-data="{&quot;origPos&quot;:null,&quot;origRot&quot;:0}" fill="#000000"/><path d="" data-paper-data="{&quot;origPos&quot;:null,&quot;origRot&quot;:0}" fill="#000000"/><path d="" data-paper-data="{&quot;origPos&quot;:null,&quot;origRot&quot;:0}" fill="#000000"/><path d="" data-paper-data="{&quot;origPos&quot;:null,&quot;origRot&quot;:0,&quot;index&quot;:null}" fill="#000000"/><path d="" data-paper-data="{&quot;origPos&quot;:null,&quot;origRot&quot;:0,&quot;index&quot;:null}" fill="#000000"/><path d="" data-paper-data="{&quot;origPos&quot;:null,&quot;origRot&quot;:0,&quot;index&quot;:null}" fill="#000000"/><path d="" data-paper-data="{&quot;origPos&quot;:null,&quot;origRot&quot;:0,&quot;index&quot;:null}" fill="#000000"/><path d="" data-paper-data="{&quot;origPos&quot;:null,&quot;origRot&quot;:0}" fill="#000000"/><path d="" data-paper-data="{&quot;origPos&quot;:null}" fill="#000000"/><path d="" data-paper-data="{&quot;origPos&quot;:null}" fill="#000000"/><path d="" data-paper-data="{&quot;origPos&quot;:null}" fill="#000000"/><path d="" data-paper-data="{&quot;origPos&quot;:null}" fill="#000000"/><path d="" data-paper-data="{&quot;origPos&quot;:null}" fill="#000000"/><path d="" data-paper-data="{&quot;origPos&quot;:null}" fill="#000000"/><path d="" data-paper-data="{&quot;origPos&quot;:null}" fill="#000000"/><path d="" data-paper-data="{&quot;origPos&quot;:null}" fill="#000000"/><path d="" data-paper-data="{&quot;origPos&quot;:null,&quot;origRot&quot;:0,&quot;index&quot;:null}" fill="#000000"/><path d="" data-paper-data="{&quot;origPos&quot;:null,&quot;origRot&quot;:0,&quot;index&quot;:null}" fill="#000000"/><path d="" data-paper-data="{&quot;origPos&quot;:null,&quot;origRot&quot;:0,&quot;index&quot;:null}" fill="#000000"/><path d="" data-paper-data="{&quot;origPos&quot;:null,&quot;origRot&quot;:0}" fill="#000000"/><path d="" data-paper-data="{&quot;origPos&quot;:null,&quot;origRot&quot;:0}" fill="#000000"/><path d="" data-paper-data="{&quot;origPos&quot;:null,&quot;origRot&quot;:0}" fill="#000000"/><path d="" data-paper-data="{&quot;origPos&quot;:null}" fill="#000000"/><path d="" data-paper-data="{&quot;origPos&quot;:null}" fill="#000000"/><path d="" data-paper-data="{&quot;origPos&quot;:null}" fill="#000000"/><path d="" data-paper-data="{&quot;origPos&quot;:null}" fill="#000000"/><path d="" data-paper-data="{&quot;origPos&quot;:null,&quot;origRot&quot;:0,&quot;index&quot;:null}" fill="#000000"/><path d="" data-paper-data="{&quot;origPos&quot;:null,&quot;origRot&quot;:0,&quot;index&quot;:null}" fill="#000000"/><path d="" data-paper-data="{&quot;origPos&quot;:null,&quot;origRot&quot;:0,&quot;index&quot;:null}" fill="#000000"/><path d="" data-paper-data="{&quot;origPos&quot;:null,&quot;origRot&quot;:0,&quot;index&quot;:null}" fill="#000000"/><path d="" data-paper-data="{&quot;origPos&quot;:null,&quot;origRot&quot;:0,&quot;index&quot;:null}" fill="#000000"/><path d="" data-paper-data="{&quot;origPos&quot;:null,&quot;origRot&quot;:0,&quot;index&quot;:null}" fill="#000000"/><path d="" data-paper-data="{&quot;origPos&quot;:null}" fill="#000000"/><path d="" data-paper-data="{&quot;origPos&quot;:null,&quot;origRot&quot;:0,&quot;index&quot;:null}" fill="#000000"/><path d="" data-paper-data="{&quot;origPos&quot;:null,&quot;origRot&quot;:0,&quot;index&quot;:null}" fill="#000000"/><path d="" data-paper-data="{&quot;origPos&quot;:null,&quot;origRot&quot;:0,&quot;index&quot;:null}" fill="#000000"/><path d="" data-paper-data="{&quot;origPos&quot;:null}" fill="#000000"/><path d="" data-paper-data="{&quot;origPos&quot;:null}" fill="#000000"/><path d="" data-paper-data="{&quot;origPos&quot;:null}" fill="#000000"/><path d="" data-paper-data="{&quot;origPos&quot;:null,&quot;origRot&quot;:0,&quot;index&quot;:null}" fill="#000000"/><path d="" data-paper-data="{&quot;origPos&quot;:null}" fill="#000000"/><path d="" data-paper-data="{&quot;origPos&quot;:null}" fill="#000000"/><path d="" data-paper-data="{&quot;origPos&quot;:null}" fill="#000000"/><path d="" data-paper-data="{&quot;origPos&quot;:null,&quot;origRot&quot;:0}" fill="#000000"/><path d="M246.48983,170.52466c0,1.51943 0,-1.51943 0,0z" data-paper-data="{&quot;origPos&quot;:null,&quot;origRot&quot;:0}" fill="#ffffff"/><path d="" data-paper-data="{&quot;origPos&quot;:null,&quot;origRot&quot;:0}" fill="#000000"/><g data-paper-data="{&quot;origPos&quot;:null}" fill="#ffffff"><path d="M175.57041,168.57711c-1.56068,1.03905 -3.50912,-0.5481 -4.35197,-3.54496c-0.84284,-2.9969 -0.26092,-6.26864 1.29975,-7.30767c1.56068,-1.03905 3.50912,0.5481 4.35197,3.54496c0.84284,2.9969 0.26092,6.26864 -1.29974,7.30767z" data-paper-data="{&quot;origPos&quot;:null,&quot;origRot&quot;:0,&quot;index&quot;:null}"/><path d="M181.62618,192.43511c0,0 -7.49119,-7.04037 -7.15236,-13.78267c0.26923,-5.35759 -3.35006,-13.90535 -3.35006,-13.90535l5.47366,-4.34777c0,0 2.22494,7.82918 4.27092,15.61457c1.76575,6.71909 4.02179,10.93821 4.02179,10.93821z" data-paper-data="{&quot;origPos&quot;:null,&quot;origRot&quot;:0,&quot;index&quot;:null}"/><path d="M184.0508,192.4298c-1.26778,0.9171 -2.64017,0.41626 -3.06537,-1.11866c-0.42522,-1.53495 0.25786,-3.52276 1.52562,-4.43987c1.26778,-0.9171 2.64019,-0.41626 3.06538,1.11866c0.42522,1.53495 -0.25787,3.52277 -1.52563,4.43987z" data-paper-data="{&quot;origPos&quot;:null,&quot;origRot&quot;:0,&quot;index&quot;:null}"/><path d="M190.18769,161.12393c0.96841,-2.99662 2.98333,-4.58327 4.50047,-3.54384c1.51714,1.03943 1.962,4.31131 0.99359,7.30797c-0.96841,2.99662 -2.98334,4.58326 -4.50049,3.54384c-1.51714,-1.03943 -1.96199,-4.3113 -0.99359,-7.30797z" data-paper-data="{&quot;origPos&quot;:null,&quot;origRot&quot;:0,&quot;index&quot;:null}"/><path d="M181.09175,186.80443c0,0 2.4328,-4.21855 4.48004,-10.93714c2.37215,-7.78481 4.92509,-15.61339 4.92509,-15.61339l5.29148,4.34915c0,0 -3.97738,8.54677 -3.93262,13.90441c0.05635,6.74233 -7.72977,13.78077 -7.72977,13.78077z" data-paper-data="{&quot;origPos&quot;:null,&quot;origRot&quot;:0,&quot;index&quot;:null}"/><path d="M156.01445,168.57711c-1.56068,1.03904 -3.50912,-0.54811 -4.35197,-3.54496c-0.84285,-2.9969 -0.26092,-6.26864 1.29975,-7.30768c1.56068,-1.03904 3.50912,0.54811 4.35197,3.54496c0.84285,2.9969 0.26092,6.26864 -1.29975,7.30768z" data-paper-data="{&quot;origPos&quot;:null,&quot;origRot&quot;:0,&quot;index&quot;:null}"/><path d="M162.07022,192.43511c0,0 -7.49119,-7.04038 -7.15235,-13.78267c0.26923,-5.35758 -3.35006,-13.90536 -3.35006,-13.90536l5.47366,-4.34777c0,0 2.22494,7.82918 4.27093,15.61457c1.76575,6.71908 4.02179,10.93822 4.02179,10.93822z" data-paper-data="{&quot;origPos&quot;:null,&quot;origRot&quot;:0,&quot;index&quot;:null}"/><path d="M164.49484,192.4298c-1.26777,0.91711 -2.64018,0.41626 -3.06537,-1.11865c-0.42521,-1.53496 0.25786,-3.52277 1.52562,-4.43987c1.26777,-0.91711 2.64019,-0.41626 3.06539,1.11866c0.42521,1.53496 -0.25787,3.52276 -1.52563,4.43986z" data-paper-data="{&quot;origPos&quot;:null,&quot;origRot&quot;:0,&quot;index&quot;:null}"/><path d="M170.63173,161.12392c0.96841,-2.99662 2.98333,-4.58327 4.50048,-3.54384c1.51714,1.03943 1.96199,4.31131 0.99358,7.30797c-0.96841,2.99662 -2.98333,4.58326 -4.50047,3.54383c-1.51714,-1.03943 -1.962,-4.31131 -0.99359,-7.30797z" data-paper-data="{&quot;origPos&quot;:null,&quot;origRot&quot;:0,&quot;index&quot;:null}"/><path d="M161.53578,186.80442c0,0 2.4328,-4.21855 4.48005,-10.93714c2.37216,-7.78482 4.9251,-15.61339 4.9251,-15.61339l5.29147,4.34915c0,0 -3.97738,8.54678 -3.93262,13.90441c0.05635,6.74232 -7.72976,13.78077 -7.72976,13.78077z" data-paper-data="{&quot;origPos&quot;:null,&quot;origRot&quot;:0,&quot;index&quot;:null}"/></g><g fill="#ffffff"><path d="M206.53645,187.21269c0,0 4.85426,-1.41281 6.38358,-5.10089c1.21524,-2.93065 -0.77204,-8.85097 -0.77204,-8.85097l6.08204,-0.76278c0,0 0.76314,5.08753 1.36057,10.09542c0.51558,4.32198 -8.04643,9.72498 -8.04643,9.72498z" data-paper-data="{&quot;origPos&quot;:null,&quot;origRot&quot;:0,&quot;index&quot;:null}"/><path d="M215.77776,176.78197c-1.69842,0.10465 -3.30513,-1.38702 -3.58871,-3.33172c-0.28357,-1.94472 0.86342,-3.60604 2.56181,-3.71069c1.69842,-0.10465 3.30513,1.38702 3.58872,3.33172c0.28357,1.94472 -0.86342,3.60604 -2.56182,3.71069z" data-paper-data="{&quot;origPos&quot;:null,&quot;origRot&quot;:0,&quot;index&quot;:null}"/><path d="M202.43559,174.09645c0,0 -1.15939,5.32468 1.04763,8.76661c1.75378,2.73507 7.71224,3.73683 7.71224,3.73683l-2.5808,6.47746c0,0 -4.39382,-2.05174 -8.64661,-4.21566c-3.67032,-1.86756 -3.9344,-12.84314 -3.9344,-12.84314z" data-paper-data="{&quot;origPos&quot;:null,&quot;origRot&quot;:0,&quot;index&quot;:null}"/><path d="M206.30005,188.00433c0.71268,-1.7887 2.64956,-2.54714 4.3262,-1.69403c1.67665,0.85313 2.45807,2.99472 1.7454,4.78344c-0.71268,1.7887 -2.64956,2.54714 -4.32621,1.69401c-1.67665,-0.85313 -2.45808,-2.99472 -1.74541,-4.78344z" data-paper-data="{&quot;origPos&quot;:null,&quot;origRot&quot;:0,&quot;index&quot;:null}"/><path d="M202.44126,175.8056c-0.22678,1.95386 -1.87599,3.26927 -3.68363,2.93807c-1.80765,-0.33121 -3.08918,-2.18362 -2.8624,-4.13748c0.22678,-1.95386 1.87599,-3.26927 3.68363,-2.93807c1.80765,0.33121 3.08918,2.18362 2.8624,4.13748z" data-paper-data="{&quot;origPos&quot;:null,&quot;origRot&quot;:0}"/><path d="M217.40095,192.06263c0,0 -6.01023,-6.26276 -4.48091,-9.95084c1.21524,-2.93065 -0.77203,-8.85097 -0.77203,-8.85097l6.08205,-0.76278c0,0 0.76316,5.08753 1.36057,10.09542c0.51558,4.32198 1.95183,7.3886 1.95183,7.3886z" data-paper-data="{&quot;origPos&quot;:null,&quot;origRot&quot;:0,&quot;index&quot;:null}"/><path d="M219.75303,192.805c-1.39267,0.12612 -2.63429,-0.57749 -2.77322,-1.57152c-0.13895,-0.99406 0.87742,-1.90213 2.27009,-2.02825c1.39267,-0.12612 2.63429,0.57749 2.77322,1.57152c0.13895,0.99406 -0.87742,1.90213 -2.27009,2.02825z" data-paper-data="{&quot;origPos&quot;:null,&quot;origRot&quot;:0,&quot;index&quot;:null}"/><path d="M212.23079,174.19722c0,0 -2.19881,-1.85972 -5.19046,-2.44568c-2.98565,0.62783 -4.92308,4.81836 -4.92308,4.81836l-5.13519,-3.94272c0,0 3.12454,-2.95282 6.31032,-5.75968c2.74946,-2.42242 13.67797,0.45735 14.71071,6.60339c0.78384,4.66471 -5.77231,0.72633 -5.77231,0.72633z" data-paper-data="{&quot;origPos&quot;:null,&quot;origRot&quot;:0,&quot;index&quot;:null}"/></g><g data-paper-data="{&quot;origPos&quot;:null}" fill="#ffffff"><path d="M226.33358,176.05977c-1.52357,0.76199 -3.42567,-0.40195 -4.24848,-2.5997c-0.82281,-2.19777 -0.25471,-4.59711 1.26885,-5.35909c1.52357,-0.76199 3.42567,0.40195 4.24848,2.5997c0.82281,2.19777 0.25471,4.59711 -1.26885,5.35909z" data-paper-data="{&quot;origPos&quot;:null,&quot;origRot&quot;:0,&quot;index&quot;:null}"/><path d="M232.24534,193.55603c0,0 -7.31304,-5.16307 -6.98226,-10.10753c0.26283,-3.92899 -3.27039,-10.19749 -3.27039,-10.19749l5.34349,-3.18844c0,0 2.17203,5.74153 4.16936,11.45094c1.72376,4.92744 3.92615,8.02155 3.92615,8.02155z" data-paper-data="{&quot;origPos&quot;:null,&quot;origRot&quot;:0,&quot;index&quot;:null}"/><path d="M234.61231,193.55214c-1.23763,0.67256 -2.5774,0.30526 -2.99248,-0.82037c-0.41509,-1.12566 0.25173,-2.58342 1.48934,-3.25598c1.23763,-0.67256 2.5774,-0.30526 2.99248,0.82037c0.41509,1.12566 -0.25173,2.58342 -1.48934,3.25598z" data-paper-data="{&quot;origPos&quot;:null,&quot;origRot&quot;:0,&quot;index&quot;:null}"/><path d="M240.60325,170.59397c0.94538,-2.19757 2.91239,-3.36114 4.39345,-2.59887c1.48106,0.76226 1.91533,3.1617 0.96996,5.3593c-0.94538,2.19757 -2.91239,3.36114 -4.39345,2.59887c-1.48106,-0.76226 -1.91533,-3.1617 -0.96996,-5.3593z" data-paper-data="{&quot;origPos&quot;:null,&quot;origRot&quot;:0,&quot;index&quot;:null}"/><path d="M231.72362,189.42676c0,0 2.37495,-3.09368 4.37351,-8.02075c2.31574,-5.709 4.80797,-11.45008 4.80797,-11.45008l5.16564,3.18945c0,0 -3.8828,6.26778 -3.83911,10.1968c0.05501,4.94449 -7.54594,10.10613 -7.54594,10.10613z" data-paper-data="{&quot;origPos&quot;:null,&quot;origRot&quot;:0,&quot;index&quot;:null}"/></g><g fill="#ffffff"><path d="M256.86789,179.38743c0,0 4.69427,-0.43581 6.64031,-2.48c1.54638,-1.62439 0.5607,-5.26728 0.5607,-5.26728l4.28166,0.0463c0,0 1.42797,3.05361 1.25931,6.04692c-0.14558,2.58332 -8.84471,5.06374 -8.84471,5.06374z" data-paper-data="{&quot;origPos&quot;:null,&quot;origRot&quot;:0,&quot;index&quot;:null}"/><path d="M254.96342,171.34131c0,0 -1.83956,3.03665 -0.2936,5.2401c1.22848,1.75093 6.59645,2.82476 6.59645,2.82476l-3.32058,3.59885c0,0 -3.76927,-1.56392 -7.39189,-3.18233c-3.12646,-1.39676 0.01139,-7.87201 0.01139,-7.87201z" data-paper-data="{&quot;origPos&quot;:null,&quot;origRot&quot;:0,&quot;index&quot;:null}"/><path d="M256.53515,179.8337c0.91697,-0.99379 2.81807,-1.28218 4.24625,-0.64413c1.4282,0.63805 1.84262,1.96092 0.92567,2.95472c-0.91697,0.99379 -2.81807,1.28218 -4.24625,0.64412c-1.38913,-0.62061 -1.57862,-1.70568 -1.29286,-2.393c0.09526,-0.2291 0.17653,-0.35508 0.36718,-0.56172z" data-paper-data="{&quot;origPos&quot;:null,&quot;origRot&quot;:0,&quot;index&quot;:null}"/><path d="M260.55732,167.19138c0,0 8.69915,2.9178 8.84471,5.95663c0.16866,3.52111 -0.53191,4.82705 -0.53191,4.82705l-5.00906,2.34059c0,0 0.98568,-4.28525 -0.5607,-6.19606c-1.94604,-2.40466 -6.64031,-2.91731 -6.64031,-2.91731z" data-paper-data="{&quot;origPos&quot;:null,&quot;origRot&quot;:0,&quot;index&quot;:null}"/><path d="M249.45679,179.95038c0,0 -1.33666,-7.61703 1.7898,-9.26008c3.62262,-1.9038 7.39189,-3.74348 7.39189,-3.74348l3.32058,4.23345c0,0 -5.36797,1.26317 -6.59645,3.32285c-1.54597,2.59199 0.2936,6.16409 0.2936,6.16409z" data-paper-data="{&quot;origPos&quot;:null,&quot;origRot&quot;:0,&quot;index&quot;:null}"/><path d="M256.95081,168.00123c0.91697,-1.16903 2.81807,-1.50826 4.24625,-0.75771c1.4282,0.75056 1.84262,2.30669 0.92567,3.47573c-0.91697,1.16903 -2.81807,1.50826 -4.24625,0.7577c-1.4282,-0.75056 -1.84264,-2.30669 -0.92567,-3.47573z" data-paper-data="{&quot;origPos&quot;:null,&quot;origRot&quot;:0,&quot;index&quot;:null}"/><path d="M255.65621,179.41657c0,0 -1.83956,3.57211 -0.2936,6.16409c1.22848,2.05968 6.59645,3.32285 6.59645,3.32285l-3.32058,4.23343c0,0 -3.76927,-1.83968 -7.39189,-3.74348c-3.12646,-1.64305 -1.7898,-10.50705 -1.7898,-10.50705z" data-paper-data="{&quot;origPos&quot;:null,&quot;origRot&quot;:0,&quot;index&quot;:null}"/><path d="M257.90702,189.11937c0,0 4.69427,-0.51265 6.64031,-2.91731c1.54638,-1.91081 6.27033,-2.54954 6.10167,0.97158c-0.14558,3.03883 -8.84471,5.95663 -8.84471,5.95663z" data-paper-data="{&quot;origPos&quot;:null,&quot;origRot&quot;:0,&quot;index&quot;:null}"/><path d="M257.5743,189.64432c0.91697,-1.16903 2.81807,-1.50826 4.24625,-0.75771c1.4282,0.75056 1.84262,2.30669 0.92567,3.47573c-0.91697,1.16903 -2.81807,1.50826 -4.24625,0.7577c-1.38913,-0.73004 -1.57862,-2.00646 -1.29286,-2.81496c0.09526,-0.26949 0.17653,-0.4177 0.36718,-0.66078z" data-paper-data="{&quot;origPos&quot;:null,&quot;origRot&quot;:0,&quot;index&quot;:null}"/></g></g></g></svg>